<svg id="Capa_1" enable-background="new 0 0 512 512" height="512" viewBox="0 0 512 512" width="512" xmlns="http://www.w3.org/2000/svg"><g><g><path d="m438.319 10.02h-364.638c-35.159 0-63.661 29.259-63.661 65.352v361.256c0 36.093 28.502 65.352 63.661 65.352h137.406 89.827 137.406c35.159 0 63.661-29.259 63.661-65.352v-361.256c-.001-36.093-28.503-65.352-63.662-65.352z" fill="#fff2a0"/><path d="m190.696 361.93 64.766-64.797 49.323 64.614c5.67 7.44 14.49 11.8 23.84 11.8h66.94v15.636c0 3.983 4.725 6.077 7.676 3.4l47.576-43.16c2.008-1.822 2.008-4.979 0-6.801l-47.576-43.16c-2.95-2.676-7.676-.583-7.676 3.4v17.384h-52.25c-4.67 0-9.08-2.18-11.92-5.9l-44.535-58.346 44.536-58.347c2.84-3.72 7.25-5.9 11.92-5.9h52.25v17.384c0 3.983 4.725 6.077 7.676 3.4l47.576-43.16c2.008-1.822 2.008-4.979 0-6.801l-47.576-43.16c-2.95-2.676-7.676-.583-7.676 3.4v15.636h-66.94c-9.35 0-18.17 4.36-23.84 11.8l-49.323 64.614-64.766-64.932c-5.68-7.44-14.5-11.8-23.85-11.8h-79.989c-14.593 0-26.882 11.508-27.177 26.098-.153 7.579 2.854 14.452 7.804 19.392 4.82 4.83 11.48 7.81 18.84 7.81h65.83c4.68 0 9.08 2.18 11.92 5.9l59.988 58.666-59.987 58.53c-2.84 3.72-7.24 5.9-11.92 5.9h-65.83c-7.36 0-14.02 2.98-18.84 7.81-4.95 4.94-7.958 11.813-7.804 19.392.295 14.59 12.584 26.098 27.177 26.098h79.988c9.349 0 18.169-4.36 23.849-11.8z" fill="#7ddac2"/></g><g><path d="m438.319 0h-364.638c-40.628 0-73.681 33.811-73.681 75.372v361.256c0 41.561 33.053 75.372 73.681 75.372h137.406c5.533 0 10.02-4.486 10.02-10.02s-4.486-10.02-10.02-10.02h-137.406c-29.578 0-53.642-24.822-53.642-55.333v-361.255c0-30.511 24.064-55.333 53.642-55.333h364.638c29.578 0 53.642 24.822 53.642 55.333v361.256c0 30.511-24.064 55.333-53.642 55.333h-137.406c-5.533 0-10.02 4.486-10.02 10.02s4.487 10.019 10.02 10.019h137.406c40.628 0 73.681-33.811 73.681-75.372v-361.256c0-41.561-33.053-75.372-73.681-75.372z"/><circle cx="256" cy="501.98" r="10"/><path d="m400.151 403.773c-1.997 0-4.008-.409-5.903-1.249-5.273-2.336-8.682-7.572-8.682-13.341v-5.637h-56.94c-12.398 0-24.283-5.884-31.794-15.738l-42.38-55.519-56.247 56.273c-7.539 9.511-19.207 15.167-31.359 15.167h-79.988c-20.098 0-36.774-16.103-37.175-35.896-.204-10.086 3.61-19.559 10.739-26.673 6.899-6.915 16.104-10.731 25.903-10.731h65.83c1.569 0 3.017-.717 3.971-1.968.295-.386.618-.751.966-1.09l52.66-51.381s-53.333-52.205-53.625-52.588c-.955-1.251-2.403-1.969-3.972-1.969h-65.83c-9.8 0-19.004-3.816-25.919-10.746-7.114-7.101-10.928-16.573-10.724-26.658.4-19.793 17.077-35.896 37.175-35.896h79.987c12.153 0 23.823 5.659 31.363 15.172l56.251 56.394 42.378-55.515c7.505-9.849 19.39-15.732 31.788-15.732h56.94v-5.637c0-5.769 3.408-11.005 8.682-13.341 5.273-2.337 11.443-1.341 15.714 2.534l47.575 43.16c3.043 2.762 4.787 6.7 4.787 10.807s-1.744 8.045-4.785 10.806l-47.578 43.161c-4.272 3.876-10.441 4.869-15.714 2.533s-8.681-7.572-8.681-13.34v-7.384h-42.25c-1.546 0-3.031.735-3.972 1.968l-39.905 52.279 39.906 52.279c.939 1.231 2.425 1.967 3.971 1.967h42.25v-7.384c0-5.768 3.407-11.004 8.681-13.34 5.273-2.337 11.441-1.344 15.713 2.532l47.577 43.161c3.043 2.762 4.787 6.7 4.787 10.807s-1.744 8.045-4.785 10.806l-47.578 43.161c-2.733 2.485-6.249 3.786-9.808 3.786zm-144.689-116.64c.222 0 .443.008.666.022 2.879.191 5.533 1.617 7.284 3.91l49.323 64.613c3.756 4.929 9.694 7.867 15.891 7.867h66.94c5.522 0 10 4.478 10 10v3.427l34.117-30.95-34.117-30.95v5.174c0 5.522-4.478 10-10 10h-52.25c-7.741 0-15.169-3.675-19.868-9.831l-44.538-58.348c-2.734-3.583-2.734-8.552 0-12.135l44.537-58.348c4.7-6.157 12.128-9.832 19.869-9.832h52.25c5.522 0 10 4.478 10 10v5.174l34.117-30.95-34.117-30.95v3.427c0 5.522-4.478 10-10 10h-66.94c-6.196 0-12.135 2.938-15.886 7.861l-49.328 64.619c-1.752 2.295-4.409 3.721-7.289 3.911-2.881.192-5.702-.873-7.74-2.916l-64.767-64.932c-.311-.312-.601-.644-.868-.993-3.762-4.928-9.707-7.869-15.902-7.869h-79.988c-9.291 0-16.997 7.312-17.179 16.3-.093 4.584 1.637 8.885 4.871 12.112 3.149 3.157 7.326 4.888 11.775 4.888h65.83c7.468 0 14.645 3.421 19.361 9.19l59.538 58.226c1.925 1.883 3.01 4.463 3.008 7.155s-1.089 5.271-3.017 7.151l-59.533 58.086c-4.716 5.768-11.891 9.187-19.357 9.187h-65.83c-4.448 0-8.625 1.73-11.761 4.874-3.249 3.241-4.979 7.542-4.886 12.126.182 8.987 7.888 16.3 17.179 16.3h79.987c6.196 0 12.141-2.941 15.902-7.868.27-.353 65.643-65.798 65.643-65.798 1.882-1.882 4.43-2.93 7.073-2.93z"/></g></g></svg>